<?xml version="1.0" encoding="UTF-8"?>
<svg xmlns="http://www.w3.org/2000/svg" width="50" height="36" viewBox="0 0 50 36" fill="none">
  <path d="M49.3086 6.74902L47.543 8.50195L43.8545 4.81348L43.833 4.79297V35.0068H41.3584V4.77832L37.6348 8.50195L35.8828 6.75L42.5957 0.0361328L49.3086 6.74902ZM15.9668 1.28223C20.3989 1.28223 24.1724 2.83642 27.2871 5.94531C30.4012 9.05409 31.9579 12.829 31.958 17.2705C31.958 21.7118 30.4038 25.4898 27.2949 28.6045C24.186 31.7192 20.411 33.2764 15.9697 33.2764C11.5282 33.2763 7.75854 31.722 4.66016 28.6133C1.56179 25.5041 0.0127951 21.7292 0.0126953 17.2881C0.0126953 12.8468 1.56379 9.06882 4.66602 5.9541C7.7682 2.83947 11.5347 1.28224 15.9668 1.28223ZM15.958 3.75684C12.1877 3.75686 8.9994 5.06916 6.39453 7.69238C3.78991 10.3151 2.4873 13.5121 2.4873 17.2822C2.48735 21.0527 3.78996 24.2485 6.39453 26.8691C8.9994 29.4903 12.1877 30.8017 15.958 30.8018C19.7283 30.8018 22.9256 29.4894 25.5488 26.8662C28.1715 24.2434 29.4834 21.0461 29.4834 17.2754C29.4833 13.5052 28.1715 10.3091 25.5488 7.68848C22.9256 5.06745 19.7283 3.75684 15.958 3.75684ZM17.2471 8.0127V16.8516H17.2422L17.251 16.8604L23.5293 23.2012L21.7305 24.9541L14.7715 17.9941V8.0127H17.2471Z" fill="#E3000F" stroke="#E5E5E5" stroke-width="0.025"></path>
</svg>
