<?xml version="1.0" encoding="UTF-8"?>
<svg xmlns="http://www.w3.org/2000/svg" width="49" height="49" viewBox="0 0 49 49" fill="none">
  <path d="M31.7189 5.98267L31.7267 5.9729L31.718 5.98462L31.7248 5.9856L41.1779 7.13208L42.3254 16.5852L42.3381 16.5842L42.3234 16.5862L42.3283 16.592L48.2297 24.1321L42.3283 31.6731L42.3381 31.6809L42.3264 31.6721L42.3254 31.679L41.1779 41.1321L31.7248 42.2786V42.2776L31.7189 42.2825L24.1779 48.1838L16.6379 42.2825L16.6301 42.2922L16.6389 42.2805L16.631 42.2795L7.17792 41.1321L6.03143 31.679H6.03339L6.0285 31.6731L0.12616 24.1321L6.0285 16.592L6.03046 16.593L6.03143 16.5852L7.17792 7.13208L16.631 5.9856L16.6301 5.9729L16.632 5.98755L16.6379 5.98267L24.1779 0.0803223L31.7189 5.98267ZM24.1711 3.27466L17.6359 8.32935L9.37323 9.37817L9.36346 9.37915L9.36249 9.38892L8.37518 17.5901L3.3205 24.1252L3.31464 24.1321L3.3205 24.1399L8.37518 30.6741L9.42401 38.9377L9.42499 38.9475L9.43475 38.9485L17.634 39.9338L24.1711 44.9905L24.1779 44.9963L24.1857 44.9905L30.7219 39.9338L38.9836 38.887L38.9933 38.885L38.9943 38.8762L39.9797 30.676L45.0363 24.1399L45.0422 24.1321L45.0363 24.1252L39.9797 17.5881L38.9328 9.38892L38.9308 9.37915L38.9221 9.37817L30.7199 8.32935L24.1857 3.27466L24.1779 3.2688L24.1711 3.27466ZM22.9221 15.3499H32.9611V25.3889C32.9611 28.178 31.9847 30.5484 30.0324 32.5002C28.0806 34.4523 25.7109 35.4279 22.9221 35.428C21.8021 35.428 20.7073 35.2582 19.6389 34.9172C18.5709 34.576 17.5931 34.0481 16.7053 33.3342L16.6965 33.3274L16.6887 33.3352L15.006 35.0647C14.7408 35.3302 14.4476 35.4622 14.1262 35.4622C13.8447 35.4621 13.5851 35.3609 13.3469 35.1575L13.2463 35.0647C12.9807 34.7995 12.8489 34.5062 12.8488 34.1848C12.8488 33.8632 12.9806 33.5692 13.2463 33.304L14.9758 31.6223L14.9846 31.6145L14.9767 31.6057C14.2308 30.7502 13.6952 29.789 13.3703 28.7229C13.0452 27.6561 12.882 26.5445 12.882 25.3889C12.882 22.5999 13.8584 20.2295 15.8107 18.2776C17.7626 16.3254 20.1331 15.3499 22.9221 15.3499ZM22.9221 17.8372C20.808 17.8372 19.0206 18.5677 17.5607 20.0276C16.1008 21.4875 15.3703 23.2748 15.3703 25.3889C15.3703 26.1857 15.4766 26.9586 15.6896 27.7073C15.9024 28.456 16.2503 29.1483 16.7316 29.7844L16.7394 29.7961L16.7502 29.7864L23.298 23.2522C23.5632 22.9866 23.8565 22.8548 24.1779 22.8547C24.4995 22.8547 24.7935 22.9865 25.0588 23.2522C25.3243 23.5173 25.4561 23.8107 25.4562 24.1321C25.4562 24.4537 25.3245 24.7477 25.0588 25.0129L18.5246 31.5608L18.5148 31.5706L18.5256 31.5793C19.1617 32.0607 19.855 32.4076 20.6037 32.6204C21.3524 32.8334 22.1252 32.9407 22.9221 32.9407C25.0361 32.9406 26.8235 32.2101 28.2834 30.7502C29.7432 29.2903 30.4728 27.503 30.4728 25.3889V17.8372H22.9221Z" fill="#E3000F" stroke="#E5E5E5" stroke-width="0.025"></path>
</svg>
