<?xml version="1.0" encoding="UTF-8"?>
<svg xmlns="http://www.w3.org/2000/svg" width="151" height="37" viewBox="0 0 151 37" fill="none">
  <path fill-rule="evenodd" clip-rule="evenodd" d="M0 13.6937L17.1866 23.1971L34.3733 13.6937V27.8126H143.554V29.1075H28.4767V21.2853L17.1866 27.3207L5.89653 21.2853V29.1075H0V13.6937Z" fill="#DD2B1C"></path>
  <path fill-rule="evenodd" clip-rule="evenodd" d="M0 6.84668L17.1866 16.35L34.3733 6.84668V12.9933L28.4767 16.2555V14.4382L17.1866 20.4709L5.89653 14.4382V16.2555L0 12.9933V6.84668Z" fill="#4E4E4D"></path>
  <path fill-rule="evenodd" clip-rule="evenodd" d="M0 0L17.1866 9.50332L34.3733 0V6.14659L28.4767 9.40607V7.59154L17.1866 13.627L5.89653 7.59154V9.40607L0 6.14659V0Z" fill="#C4C5C5"></path>
  <path fill-rule="evenodd" clip-rule="evenodd" d="M123.951 13.6548H129.467L133.551 18.1925L137.661 13.6548H143.244L136.877 20.0487L143.555 26.5871H137.883L133.551 21.9327L129.247 26.5871H123.439L130.206 20.0487L123.951 13.6548ZM108.506 13.6548H123.167V16.6947H112.483V18.562H122.625V21.4047H112.483V23.4777H123.245V26.5843H108.509V13.652L108.506 13.6548ZM93.9373 13.6548H98.1749V23.2859H107.589V26.5843H93.9401V13.652L93.9373 13.6548ZM74.9472 13.6548H78.982V19.5957C79.0014 20.9601 79.0515 21.8243 79.1265 22.1828C79.2543 22.7969 79.6961 23.1553 80.4436 23.2637C81.1272 23.3637 82.1664 23.4137 83.553 23.4137C84.9396 23.4137 85.9984 23.3721 86.5763 23.2915C87.4239 23.1664 87.8962 22.6913 87.9935 21.8688C88.0685 21.2046 88.1102 20.4488 88.1102 19.5957V13.6548H92.145V19.5957C92.0977 21.6687 92.031 23.0219 91.9393 23.6583C91.7809 24.7309 91.2502 25.5228 90.3499 26.0341C89.6858 26.4092 88.5659 26.6343 86.9931 26.7177C86.2734 26.7566 85.1397 26.776 83.6003 26.776C81.3328 26.776 79.7184 26.7121 78.7625 26.5843C78.04 26.4898 77.4648 26.362 77.0396 26.1925C76.6145 26.023 76.2505 25.7868 75.9531 25.4784C75.5474 25.056 75.2835 24.5252 75.164 23.8834C75.0361 23.1581 74.9694 22.28 74.9639 21.2519L74.9444 19.593V13.652L74.9472 13.6548ZM59.9169 23.2887H65.53C66.6693 23.2887 67.5196 23.2442 68.0809 23.1553C68.7061 23.0553 69.1007 22.7163 69.2619 22.1439C69.3841 21.727 69.4453 21.0713 69.4453 20.1709C69.4453 19.2123 69.3786 18.5093 69.2508 18.0591C69.0979 17.495 68.7423 17.156 68.1865 17.0365C67.7447 16.9365 66.8499 16.8837 65.4911 16.8837H59.9141V23.2859L59.9169 23.2887ZM55.9433 26.5871V13.6548H65.4939C67.5696 13.6548 68.909 13.6909 69.5147 13.7604C70.6929 13.8937 71.5599 14.1939 72.1157 14.6635C72.7075 15.1664 73.0993 15.9834 73.2855 17.106C73.3744 17.6423 73.4217 18.5787 73.4217 19.9209C73.4217 21.6326 73.3467 22.8219 73.1883 23.4915C72.9743 24.4002 72.627 25.0699 72.1407 25.5006C71.8128 25.7979 71.4126 26.0202 70.9402 26.173C70.4679 26.3231 69.8315 26.4342 69.0312 26.5065C68.3949 26.5621 67.2223 26.5899 65.5022 26.5899H55.9433V26.5871ZM45.1006 16.8281C43.0804 16.8281 41.8522 16.8809 41.4187 16.9893C40.8963 17.1227 40.5601 17.4228 40.41 17.8868C40.2655 18.3509 40.1988 19.1984 40.1988 20.4377C40.1988 21.2408 40.2405 21.8187 40.3239 22.1716C40.4878 22.8274 40.9741 23.2053 41.7883 23.2998C42.3913 23.3748 43.55 23.4137 45.2589 23.4137C46.9679 23.4137 48.1266 23.3748 48.7296 23.2998C49.5438 23.2053 50.0273 22.8274 50.1829 22.1716C50.2718 21.8132 50.3191 21.2547 50.3191 20.4933C50.3191 19.5652 50.2941 18.9066 50.244 18.5148C50.1523 17.8618 49.9467 17.4311 49.6216 17.2144C49.3298 17.0143 48.7213 16.892 47.7904 16.8448C47.4542 16.8337 46.5594 16.8253 45.1033 16.8253L45.1006 16.8281ZM45.3729 13.4658C48.1516 13.4658 50.0801 13.5325 51.1527 13.6714C52.6977 13.8743 53.6452 14.594 53.9954 15.825C54.2343 16.6697 54.3538 18.1036 54.3538 20.1265C54.3538 22.1494 54.2343 23.5721 53.9954 24.4169C53.6452 25.6479 52.6977 26.3648 51.1527 26.5704C50.0857 26.7093 48.1211 26.7788 45.2589 26.7788C42.3968 26.7788 40.4378 26.7093 39.3652 26.5704C37.8202 26.3648 36.8754 25.6479 36.5225 24.4169C36.2835 23.5721 36.1641 22.1411 36.1641 20.1265C36.1641 18.1119 36.2835 16.6642 36.5225 15.825C36.8726 14.594 37.8202 13.8743 39.3652 13.6714C40.4434 13.5325 42.4468 13.4658 45.3729 13.4658Z" fill="#DD2B1C"></path>
  <path fill-rule="evenodd" clip-rule="evenodd" d="M139.947 36.3932H140.619V34.7287C140.619 34.5453 140.655 34.3814 140.722 34.2341C140.791 34.0868 140.886 33.9618 141.008 33.8562C141.133 33.7506 141.278 33.6728 141.444 33.6172C141.611 33.5616 141.795 33.5338 141.992 33.5338C142.211 33.5338 142.389 33.5672 142.517 33.6339C142.648 33.7006 142.739 33.8062 142.798 33.9451C142.853 34.0868 142.881 34.2674 142.878 34.4869V36.3904H143.551V34.512C143.551 34.348 143.548 34.2007 143.537 34.0674C143.526 33.934 143.498 33.8145 143.456 33.7033C143.415 33.595 143.351 33.4922 143.262 33.4032C143.139 33.281 142.984 33.1865 142.798 33.1254C142.612 33.0614 142.395 33.0309 142.147 33.0309C141.817 33.0309 141.525 33.0892 141.275 33.2004C141.025 33.3115 140.803 33.4727 140.614 33.6783V33.1142H139.947V36.3904V36.3932ZM134.842 34.7593C134.842 34.512 134.9 34.298 135.012 34.1202C135.123 33.9395 135.281 33.8034 135.487 33.7061C135.692 33.6116 135.937 33.5616 136.22 33.5616C136.504 33.5616 136.746 33.6116 136.951 33.7061C137.157 33.8034 137.315 33.9395 137.426 34.1202C137.538 34.298 137.593 34.512 137.593 34.7593C137.593 35.0093 137.538 35.2205 137.426 35.3984C137.315 35.5762 137.16 35.7124 136.951 35.8096C136.746 35.9041 136.504 35.9541 136.22 35.9541C135.937 35.9541 135.692 35.9041 135.487 35.8096C135.281 35.7124 135.123 35.5762 135.012 35.3984C134.9 35.2205 134.842 35.0066 134.842 34.7593ZM134.142 34.7593C134.142 35.0232 134.192 35.2622 134.286 35.4762C134.381 35.6901 134.52 35.8763 134.703 36.0292C134.887 36.182 135.103 36.3015 135.359 36.3848C135.615 36.4682 135.904 36.5099 136.223 36.5099C136.543 36.5099 136.829 36.4682 137.085 36.3848C137.34 36.3015 137.557 36.1848 137.738 36.0292C137.918 35.8763 138.057 35.6901 138.152 35.4762C138.246 35.2622 138.293 35.0232 138.296 34.7593C138.296 34.4953 138.246 34.2563 138.152 34.0396C138.054 33.8256 137.918 33.6422 137.738 33.4894C137.557 33.3365 137.34 33.2171 137.085 33.1337C136.829 33.0503 136.543 33.0087 136.223 33.0087C135.904 33.0087 135.615 33.0531 135.359 33.1337C135.103 33.2171 134.884 33.3338 134.703 33.4894C134.523 33.645 134.384 33.8284 134.286 34.0396C134.189 34.2563 134.142 34.4953 134.142 34.7593ZM132.452 31.975H131.78V32.6919H132.452V31.975ZM131.78 36.3932H132.452V33.1198H131.78V36.3932ZM129.301 35.5873V33.6339H130.21V33.1198H129.301V32.2862H128.629V33.1198H127.984V33.6339H128.629V35.7568C128.629 36.0097 128.707 36.1987 128.862 36.3237C129.021 36.4487 129.262 36.5099 129.593 36.5099C129.688 36.5099 129.782 36.5043 129.885 36.4932C129.988 36.4821 130.096 36.471 130.21 36.4543V35.9152C130.118 35.9347 130.038 35.9486 129.963 35.9569C129.888 35.9652 129.821 35.9708 129.757 35.9708C129.593 35.9708 129.474 35.943 129.404 35.8791C129.332 35.8207 129.298 35.7207 129.298 35.5846L129.301 35.5873ZM125.808 34.2035H126.509C126.453 33.959 126.345 33.7478 126.178 33.57C126.011 33.3921 125.8 33.256 125.542 33.1587C125.283 33.0614 124.991 33.0114 124.664 33.0114C124.363 33.0114 124.088 33.0559 123.841 33.1393C123.594 33.2226 123.383 33.3421 123.205 33.4977C123.027 33.6533 122.888 33.8367 122.793 34.0507C122.696 34.2646 122.649 34.5036 122.646 34.7648C122.646 35.026 122.696 35.265 122.793 35.4762C122.888 35.6901 123.027 35.8763 123.205 36.0292C123.383 36.1848 123.594 36.3042 123.838 36.3876C124.083 36.471 124.352 36.5127 124.65 36.5154C124.989 36.5154 125.289 36.4599 125.553 36.3515C125.817 36.2431 126.033 36.0903 126.2 35.8902C126.37 35.6901 126.481 35.4512 126.536 35.1761H125.828C125.797 35.3372 125.731 35.4762 125.625 35.5929C125.522 35.7096 125.389 35.8013 125.228 35.8652C125.066 35.9291 124.88 35.9597 124.677 35.9625C124.48 35.9625 124.299 35.9347 124.138 35.8791C123.974 35.8235 123.835 35.7457 123.716 35.6401C123.599 35.5345 123.505 35.4123 123.444 35.265C123.38 35.1177 123.346 34.951 123.344 34.7676C123.344 34.5203 123.402 34.3063 123.513 34.1285C123.624 33.9479 123.783 33.8117 123.988 33.7145C124.194 33.62 124.438 33.57 124.722 33.57C124.905 33.57 125.069 33.595 125.216 33.6478C125.364 33.6978 125.486 33.7728 125.586 33.8673C125.686 33.9645 125.758 34.0785 125.803 34.2118L125.808 34.2035ZM121.012 33.1198H120.34V34.7843C120.34 34.9677 120.304 35.1316 120.237 35.2789C120.17 35.4262 120.073 35.5512 119.951 35.654C119.828 35.7596 119.684 35.8374 119.514 35.893C119.348 35.9486 119.167 35.9764 118.967 35.9764C118.748 35.9764 118.57 35.943 118.442 35.8763C118.311 35.8096 118.22 35.704 118.161 35.5651C118.106 35.4234 118.078 35.2428 118.078 35.0232V33.1198H117.405V34.9982C117.405 35.1622 117.408 35.3095 117.419 35.4428C117.433 35.5762 117.458 35.6957 117.5 35.8069C117.542 35.9152 117.605 36.018 117.697 36.107C117.819 36.2292 117.972 36.3237 118.161 36.3904C118.347 36.4543 118.567 36.4876 118.814 36.4876C119.128 36.4876 119.412 36.4349 119.665 36.3293C119.917 36.2209 120.145 36.0597 120.348 35.8402V36.3959H121.012V33.1198ZM113.732 36.3932H114.404V34.7898C114.404 34.6148 114.438 34.4536 114.499 34.3119C114.56 34.1674 114.646 34.0451 114.754 33.9423C114.863 33.8395 114.988 33.7589 115.13 33.7033C115.271 33.6478 115.421 33.62 115.583 33.62C115.652 33.62 115.724 33.6255 115.805 33.6339C115.883 33.645 115.969 33.6617 116.063 33.6867V33.0614C116.019 33.0392 115.972 33.0253 115.924 33.017C115.877 33.0086 115.824 33.0059 115.763 33.0059C115.488 33.0059 115.232 33.0614 115.002 33.1726C114.771 33.2837 114.568 33.4505 114.396 33.6672V33.117H113.729V36.3932H113.732ZM111.3 35.5873V33.6339H112.209V33.1198H111.3V32.2862H110.628V33.1198H109.983V33.6339H110.628V35.7568C110.628 36.0097 110.706 36.1987 110.861 36.3237C111.02 36.4487 111.262 36.5099 111.589 36.5099C111.684 36.5099 111.781 36.5043 111.881 36.4932C111.984 36.4821 112.092 36.471 112.206 36.4543V35.9152C112.117 35.9347 112.034 35.9486 111.962 35.9569C111.887 35.9652 111.817 35.9708 111.756 35.9708C111.592 35.9708 111.473 35.943 111.403 35.8791C111.331 35.8207 111.298 35.7207 111.298 35.5846L111.3 35.5873ZM104.957 35.3289C104.995 35.729 105.168 36.0264 105.468 36.2209C105.768 36.4154 106.207 36.5127 106.779 36.5099C107.185 36.5099 107.524 36.4682 107.799 36.3848C108.074 36.3015 108.283 36.182 108.422 36.0236C108.561 35.8652 108.633 35.6762 108.633 35.4539C108.633 35.3067 108.611 35.1816 108.563 35.0788C108.519 34.9732 108.447 34.8871 108.349 34.8176C108.252 34.7481 108.13 34.6898 107.98 34.6426C107.83 34.5981 107.652 34.5592 107.446 34.5286L106.64 34.4119C106.502 34.3925 106.379 34.3702 106.274 34.348C106.168 34.3258 106.082 34.298 106.015 34.2674C105.946 34.2369 105.896 34.1952 105.86 34.1452C105.826 34.0951 105.81 34.0312 105.81 33.9534C105.81 33.8117 105.89 33.7033 106.051 33.6255C106.213 33.5505 106.452 33.5116 106.768 33.5116C107.105 33.5116 107.36 33.5588 107.541 33.6533C107.719 33.7506 107.819 33.9006 107.844 34.1035H108.494V34.0785C108.494 33.8506 108.43 33.6561 108.302 33.4949C108.174 33.3365 107.985 33.2143 107.733 33.1337C107.482 33.0503 107.171 33.0087 106.802 33.0087C106.249 33.0087 105.832 33.1003 105.551 33.2754C105.271 33.4533 105.132 33.7145 105.129 34.0562C105.129 34.2035 105.157 34.3286 105.212 34.4314C105.268 34.5342 105.348 34.6175 105.457 34.6815C105.565 34.7481 105.701 34.8009 105.865 34.8454C106.029 34.8871 106.218 34.926 106.435 34.9566L107.268 35.0844C107.424 35.1066 107.552 35.1316 107.652 35.165C107.752 35.1955 107.824 35.2372 107.871 35.2872C107.919 35.3372 107.941 35.4067 107.941 35.4873C107.941 35.5901 107.896 35.6763 107.81 35.7513C107.721 35.8235 107.591 35.8819 107.419 35.9236C107.246 35.9652 107.035 35.9847 106.782 35.9847C106.46 35.9847 106.204 35.9263 106.018 35.8124C105.835 35.6985 105.726 35.5401 105.693 35.3289H104.957ZM99.7492 36.3932H100.422V34.7287C100.422 34.5453 100.458 34.3814 100.524 34.2341C100.594 34.0868 100.688 33.9618 100.813 33.8562C100.936 33.7506 101.083 33.6728 101.25 33.6172C101.416 33.5616 101.6 33.5338 101.797 33.5338C102.019 33.5338 102.194 33.5672 102.322 33.6339C102.453 33.7006 102.547 33.8062 102.603 33.9451C102.659 34.0868 102.686 34.2674 102.686 34.4869V36.3904H103.359V34.512C103.359 34.348 103.356 34.2007 103.342 34.0674C103.331 33.934 103.303 33.8145 103.262 33.7033C103.22 33.595 103.156 33.4922 103.067 33.4032C102.948 33.281 102.792 33.1865 102.603 33.1254C102.414 33.0614 102.197 33.0309 101.95 33.0309C101.616 33.0309 101.327 33.0892 101.077 33.2004C100.825 33.3115 100.608 33.4727 100.416 33.6783V33.1142H99.7519V36.3904L99.7492 36.3932ZM94.6473 34.7593C94.6473 34.512 94.7057 34.298 94.8169 34.1202C94.928 33.9395 95.0864 33.8034 95.292 33.7061C95.4977 33.6116 95.7422 33.5616 96.0256 33.5616C96.3091 33.5616 96.5536 33.6116 96.7592 33.7061C96.9648 33.8034 97.1204 33.9395 97.2316 34.1202C97.3428 34.298 97.3983 34.512 97.4011 34.7593C97.4011 35.0093 97.3455 35.2205 97.2316 35.3984C97.1204 35.5762 96.9648 35.7124 96.7592 35.8096C96.5536 35.9041 96.3091 35.9541 96.0256 35.9541C95.7422 35.9541 95.4977 35.9041 95.292 35.8096C95.0864 35.7124 94.928 35.5762 94.8169 35.3984C94.7029 35.2205 94.6473 35.0066 94.6473 34.7593ZM93.9471 34.7593C93.9471 35.0232 93.9971 35.2622 94.0944 35.4762C94.1889 35.6901 94.3278 35.8763 94.5112 36.0292C94.6918 36.182 94.9113 36.3015 95.167 36.3848C95.4226 36.4682 95.7116 36.5099 96.0312 36.5099C96.3507 36.5099 96.6397 36.4682 96.8926 36.3848C97.1482 36.3015 97.365 36.1848 97.5456 36.0292C97.7262 35.8763 97.8624 35.6901 97.9596 35.4762C98.0569 35.2622 98.1041 35.0232 98.1041 34.7593C98.1041 34.4953 98.0541 34.2563 97.9596 34.0396C97.8652 33.8256 97.7262 33.6422 97.5456 33.4894C97.365 33.3365 97.1482 33.2171 96.8926 33.1337C96.6369 33.0503 96.3507 33.0087 96.0312 33.0087C95.7116 33.0087 95.4226 33.0531 95.167 33.1337C94.9113 33.2171 94.6918 33.3338 94.5112 33.4894C94.3306 33.645 94.1916 33.8284 94.0944 34.0396C93.9971 34.2563 93.9499 34.4953 93.9471 34.7593ZM92.5438 34.687H91.8075C91.7658 34.9343 91.6657 35.1511 91.5074 35.3372C91.349 35.5234 91.1433 35.6651 90.8877 35.7679C90.6348 35.8708 90.3403 35.9236 90.0096 35.9236C89.5845 35.9236 89.2232 35.8513 88.9231 35.7124C88.623 35.5734 88.3951 35.3761 88.2368 35.1177C88.0784 34.8593 87.9978 34.5481 87.9978 34.1841C87.9978 33.8228 88.0784 33.5116 88.2368 33.2504C88.3951 32.992 88.6202 32.7919 88.9203 32.6557C89.2177 32.5168 89.5817 32.4473 90.004 32.4446C90.3236 32.4446 90.607 32.4918 90.8516 32.5807C91.0961 32.6724 91.2962 32.8002 91.4518 32.9697C91.6074 33.1393 91.7074 33.3421 91.7547 33.5783H92.491C92.4632 33.3199 92.3854 33.0892 92.2576 32.878C92.1298 32.6669 91.9547 32.4862 91.738 32.3334C91.5212 32.1806 91.2684 32.0639 90.9766 31.9805C90.6876 31.8999 90.3653 31.8582 90.0152 31.8555C89.5844 31.8555 89.201 31.911 88.862 32.0194C88.523 32.1278 88.234 32.2862 87.9978 32.489C87.7616 32.6947 87.581 32.9392 87.4559 33.2226C87.3309 33.5088 87.267 33.8284 87.267 34.1813C87.267 34.5342 87.3309 34.8537 87.4559 35.14C87.581 35.4262 87.7616 35.6707 87.9978 35.8735C88.234 36.0764 88.523 36.2348 88.8592 36.3431C89.1954 36.4515 89.5789 36.5071 90.0068 36.5071C90.3653 36.5071 90.6904 36.4626 90.9849 36.3765C91.2795 36.2904 91.5379 36.1681 91.7602 36.0097C91.9797 35.8485 92.1576 35.6568 92.2937 35.4345C92.4271 35.2094 92.5133 34.9593 92.5466 34.6842L92.5438 34.687ZM81.0398 36.3932H81.7122V33.6339H82.6209V33.1198H81.7122V32.9003C81.7122 32.803 81.7261 32.728 81.7567 32.6724C81.7845 32.6141 81.8345 32.5752 81.9012 32.5502C81.9706 32.5251 82.0623 32.514 82.1763 32.514C82.2402 32.514 82.3069 32.5168 82.3791 32.5251C82.4541 32.5307 82.532 32.5418 82.6209 32.5585V32.025C82.5208 32.0055 82.4208 31.9944 82.318 31.9861C82.2152 31.9805 82.1096 31.975 82.004 31.975C81.6705 31.975 81.4232 32.0361 81.2704 32.1667C81.1148 32.2945 81.037 32.5001 81.0398 32.778V33.1198H80.3868V33.6339H81.0398V36.3932ZM75.6601 34.7593C75.6601 34.512 75.7184 34.298 75.8296 34.1202C75.9407 33.9395 76.0991 33.8034 76.3048 33.7061C76.5104 33.6116 76.7549 33.5616 77.0383 33.5616C77.3218 33.5616 77.5663 33.6116 77.7719 33.7061C77.9776 33.8034 78.1332 33.9395 78.2471 34.1202C78.3583 34.298 78.4138 34.512 78.4138 34.7593C78.4138 35.0093 78.3583 35.2205 78.2471 35.3984C78.136 35.5762 77.9803 35.7124 77.7719 35.8096C77.5663 35.9041 77.3218 35.9541 77.0383 35.9541C76.7549 35.9541 76.5104 35.9041 76.3048 35.8096C76.0991 35.7124 75.9407 35.5762 75.8296 35.3984C75.7157 35.2205 75.6601 35.0066 75.6601 34.7593ZM74.9598 34.7593C74.9598 35.0232 75.0071 35.2622 75.1043 35.4762C75.1988 35.6901 75.3377 35.8763 75.5211 36.0292C75.7045 36.182 75.9213 36.3015 76.1769 36.3848C76.4326 36.4682 76.7216 36.5099 77.0411 36.5099C77.3635 36.5099 77.6497 36.4682 77.9053 36.3848C78.161 36.3015 78.3777 36.1848 78.5583 36.0292C78.7389 35.8763 78.8751 35.6901 78.9724 35.4762C79.0668 35.2622 79.1169 35.0232 79.1169 34.7593C79.1169 34.4953 79.0668 34.2563 78.9724 34.0396C78.8751 33.8256 78.7389 33.6422 78.5583 33.4894C78.3777 33.3365 78.161 33.2171 77.9053 33.1337C77.6497 33.0503 77.3635 33.0087 77.0411 33.0087C76.7216 33.0087 76.4326 33.0531 76.1769 33.1337C75.9213 33.2171 75.7045 33.3338 75.5211 33.4894C75.3405 33.645 75.2016 33.8284 75.1043 34.0396C75.0071 34.2563 74.9598 34.4953 74.9598 34.7593ZM69.0911 34.7732C69.0911 35.0177 69.0355 35.2261 68.9271 35.4012C68.816 35.5762 68.6604 35.7096 68.4575 35.8041C68.2547 35.8986 68.0129 35.9458 67.7323 35.9486C67.4516 35.9486 67.2099 35.8986 67.0098 35.8069C66.8097 35.7124 66.6541 35.579 66.5457 35.4039C66.4374 35.2289 66.3818 35.0177 66.3818 34.7732C66.3818 34.5258 66.4374 34.3174 66.5457 34.1424C66.6541 33.9673 66.8097 33.8339 67.0098 33.7395C67.2099 33.645 67.4516 33.6005 67.7323 33.5977C68.0129 33.5977 68.2547 33.6478 68.4575 33.7395C68.6604 33.8339 68.816 33.9673 68.9271 34.1424C69.0355 34.3174 69.0911 34.5286 69.0911 34.7704V34.7732ZM69.7719 31.975H69.0911V33.6228C68.9021 33.431 68.6909 33.2893 68.4575 33.1976C68.2241 33.1059 67.9601 33.0587 67.6628 33.0614C67.3655 33.0614 67.0987 33.1031 66.8542 33.1865C66.6097 33.2671 66.4013 33.3838 66.2262 33.5338C66.0484 33.6867 65.9122 33.8645 65.8177 34.0757C65.7205 34.2841 65.6732 34.5175 65.6704 34.7732C65.6704 35.0288 65.7205 35.2622 65.8177 35.4734C65.9122 35.6846 66.0484 35.8652 66.2234 36.018C66.3985 36.1709 66.6069 36.2876 66.8486 36.3682C67.0932 36.4515 67.3599 36.4932 67.6545 36.4932C67.9546 36.4932 68.2241 36.4432 68.4603 36.3487C68.6965 36.2515 68.9077 36.1097 69.0911 35.9152V36.3932H69.7719V31.9722V31.975ZM60.8104 34.7593C60.8104 34.512 60.8687 34.298 60.9799 34.1202C61.091 33.9395 61.2494 33.8034 61.4578 33.7061C61.6635 33.6116 61.908 33.5616 62.1914 33.5616C62.4749 33.5616 62.7194 33.6116 62.9222 33.7061C63.1279 33.8034 63.2863 33.9395 63.3974 34.1202C63.5086 34.298 63.5641 34.512 63.5669 34.7593C63.5669 35.0093 63.5086 35.2205 63.3974 35.3984C63.2863 35.5762 63.1307 35.7124 62.9222 35.8096C62.7194 35.9041 62.4749 35.9541 62.1914 35.9541C61.908 35.9541 61.6635 35.9041 61.4578 35.8096C61.2522 35.7124 61.0938 35.5762 60.9799 35.3984C60.8687 35.2205 60.8132 35.0066 60.8104 34.7593ZM60.1101 34.7593C60.1101 35.0232 60.1602 35.2622 60.2546 35.4762C60.3519 35.6901 60.4881 35.8763 60.6714 36.0292C60.8521 36.182 61.0716 36.3015 61.3272 36.3848C61.5829 36.4682 61.8719 36.5099 62.1914 36.5099C62.511 36.5099 62.7972 36.4682 63.0528 36.3848C63.3085 36.3015 63.5252 36.1848 63.7086 36.0292C63.8893 35.8763 64.0254 35.6901 64.1227 35.4762C64.2171 35.2622 64.2644 35.0232 64.2672 34.7593C64.2672 34.4953 64.2199 34.2563 64.1227 34.0396C64.0282 33.8256 63.8893 33.6422 63.7086 33.4894C63.528 33.3365 63.3113 33.2171 63.0528 33.1337C62.7972 33.0503 62.511 33.0087 62.1914 33.0087C61.8719 33.0087 61.5829 33.0531 61.3272 33.1337C61.0716 33.2171 60.8521 33.3338 60.6714 33.4894C60.4881 33.645 60.3519 33.8284 60.2546 34.0396C60.1602 34.2563 60.1101 34.4953 60.1101 34.7593ZM54.8666 36.3932H55.5391V34.7287C55.5391 34.5453 55.5752 34.3814 55.6419 34.2341C55.7114 34.0868 55.8058 33.9618 55.9281 33.8562C56.0532 33.7506 56.1976 33.6728 56.3644 33.6172C56.5311 33.5616 56.7145 33.5338 56.9118 33.5338C57.1341 33.5338 57.3092 33.5672 57.4398 33.6339C57.5704 33.7006 57.6621 33.8062 57.7204 33.9451C57.776 34.0868 57.8038 34.2674 57.8038 34.4869V36.3904H58.4762V34.512C58.4762 34.348 58.4734 34.2007 58.4623 34.0674C58.4512 33.934 58.4234 33.8145 58.3818 33.7033C58.3401 33.595 58.2762 33.4922 58.1872 33.4032C58.065 33.281 57.9121 33.1865 57.7232 33.1254C57.5342 33.0614 57.3175 33.0309 57.0702 33.0309C56.7395 33.0309 56.4477 33.0892 56.1976 33.2004C55.9448 33.3115 55.728 33.4727 55.5419 33.6783V31.9694H54.8694V36.3904L54.8666 36.3932ZM52.438 35.5873V33.6339H53.3466V33.1198H52.438V32.2862H51.7655V33.1198H51.1209V33.6339H51.7655V35.7568C51.7655 36.0097 51.8433 36.1987 51.9989 36.3237C52.1573 36.4487 52.3991 36.5099 52.727 36.5099C52.8215 36.5099 52.9187 36.5043 53.0187 36.4932C53.1216 36.4821 53.2299 36.471 53.3439 36.4543V35.9152C53.2549 35.9347 53.1716 35.9486 53.0993 35.9569C53.0243 35.9652 52.9548 35.9708 52.8937 35.9708C52.7298 35.9708 52.6103 35.943 52.5408 35.8791C52.4686 35.8207 52.4352 35.7207 52.4352 35.5846L52.438 35.5873ZM46.3414 34.4536C46.3803 34.2674 46.4581 34.109 46.5748 33.9729C46.6915 33.8395 46.8416 33.7367 47.025 33.6672C47.2084 33.5977 47.4168 33.5616 47.6557 33.5588C47.8947 33.5588 48.1059 33.595 48.2893 33.6672C48.4727 33.7395 48.6227 33.8423 48.7367 33.9757C48.8506 34.109 48.9256 34.2674 48.9618 34.4508H46.3469L46.3414 34.4536ZM46.3219 34.876H49.6814V34.7593C49.6814 34.3952 49.6009 34.0812 49.4369 33.82C49.2758 33.5616 49.0451 33.3588 48.7422 33.2198C48.4394 33.0809 48.0753 33.0087 47.653 33.0087C47.3417 33.0087 47.0611 33.0531 46.811 33.1337C46.5609 33.2171 46.3442 33.3338 46.1663 33.4866C45.9885 33.6394 45.8523 33.8228 45.7578 34.0396C45.6634 34.2535 45.6133 34.4953 45.6133 34.7593C45.6133 35.0232 45.6634 35.2622 45.7578 35.4762C45.8523 35.6901 45.9885 35.8763 46.1663 36.0292C46.3442 36.182 46.5581 36.3015 46.811 36.3848C47.0611 36.4682 47.3417 36.5099 47.6557 36.5099C47.9864 36.5099 48.281 36.4626 48.5449 36.3709C48.8089 36.282 49.0312 36.1514 49.2146 35.9819C49.398 35.8124 49.5314 35.6096 49.6203 35.3706H48.8367C48.7839 35.4901 48.7061 35.5957 48.5922 35.6818C48.4838 35.7679 48.3476 35.8346 48.1893 35.8819C48.0309 35.9291 47.853 35.9513 47.653 35.9513C47.3862 35.9513 47.1556 35.9041 46.9555 35.8152C46.7554 35.7263 46.6026 35.604 46.4914 35.4456C46.3775 35.2872 46.3247 35.1038 46.3219 34.8982V34.8732V34.876ZM37.7995 36.3932H38.4942L38.4525 32.4334L40.4421 36.3932H41.1646L43.1903 32.4334L43.1486 36.3932H43.8433V31.9722H42.7873L40.8033 35.8235L38.8665 31.9722H37.7995V36.3932ZM28.7046 36.3932H29.3771V34.7287C29.3771 34.5453 29.4132 34.3814 29.4799 34.2341C29.5493 34.0868 29.6438 33.9618 29.7689 33.8562C29.8911 33.7506 30.0384 33.6728 30.2051 33.6172C30.3718 33.5616 30.5552 33.5338 30.7525 33.5338C30.9748 33.5338 31.1499 33.5672 31.2805 33.6339C31.4111 33.7006 31.5028 33.8062 31.5612 33.9451C31.6167 34.0868 31.6445 34.2674 31.6445 34.4869V36.3904H32.317V34.512C32.317 34.348 32.3142 34.2007 32.3003 34.0674C32.2892 33.934 32.2614 33.8145 32.2197 33.7033C32.178 33.595 32.1114 33.4922 32.0224 33.4032C31.9029 33.281 31.7473 33.1865 31.5584 33.1254C31.3694 33.0614 31.1527 33.0309 30.9054 33.0309C30.5719 33.0309 30.2829 33.0892 30.0328 33.2004C29.7828 33.3115 29.5604 33.4727 29.3715 33.6783V33.1142H28.7074V36.3904L28.7046 36.3932ZM24.8977 36.3932H25.5729V34.7898C25.5729 34.6148 25.6035 34.4536 25.6674 34.3119C25.7285 34.1674 25.8147 34.0451 25.9231 33.9423C26.0342 33.8395 26.1565 33.7589 26.301 33.7033C26.4427 33.6478 26.5927 33.62 26.7539 33.62C26.8234 33.62 26.8956 33.6255 26.9762 33.6339C27.054 33.645 27.1402 33.6617 27.2346 33.6867V33.0614C27.1902 33.0392 27.1429 33.0253 27.0957 33.017C27.0457 33.0086 26.9929 33.0059 26.9373 33.0059C26.6622 33.0059 26.4066 33.0614 26.1731 33.1726C25.9425 33.2837 25.7397 33.4505 25.5674 33.6672V33.117H24.9005V36.3932H24.8977ZM19.8654 34.4536C19.9043 34.2674 19.9793 34.109 20.0988 33.9729C20.2155 33.8395 20.3655 33.7367 20.5462 33.6672C20.7296 33.5977 20.9407 33.5616 21.1769 33.5588C21.4159 33.5588 21.6271 33.595 21.8105 33.6672C21.9939 33.7395 22.1439 33.8423 22.2579 33.9757C22.3718 34.109 22.4468 34.2674 22.483 34.4508H19.8681L19.8654 34.4536ZM19.8459 34.876H23.2054V34.7593C23.2054 34.3952 23.1221 34.0812 22.9609 33.82C22.7997 33.5616 22.5691 33.3588 22.2662 33.2198C21.9633 33.0809 21.5993 33.0087 21.1769 33.0087C20.8657 33.0087 20.5851 33.0531 20.335 33.1337C20.0849 33.2171 19.8709 33.3338 19.6931 33.4866C19.5152 33.6394 19.3791 33.8228 19.2846 34.0396C19.1873 34.2535 19.1401 34.4953 19.1401 34.7593C19.1401 35.0232 19.1873 35.2622 19.2846 35.4762C19.3791 35.6901 19.5152 35.8763 19.6931 36.0292C19.8709 36.182 20.0849 36.3015 20.335 36.3848C20.5851 36.4682 20.8657 36.5099 21.1797 36.5099C21.5104 36.5099 21.8049 36.4626 22.0689 36.3709C22.3329 36.282 22.5552 36.1514 22.7386 35.9819C22.922 35.8124 23.0582 35.6096 23.1471 35.3706H22.3635C22.3107 35.4901 22.2301 35.5957 22.1189 35.6818C22.0078 35.7679 21.8744 35.8346 21.716 35.8819C21.5576 35.9291 21.3798 35.9513 21.1825 35.9513C20.9157 35.9513 20.6851 35.9041 20.485 35.8152C20.285 35.7263 20.1293 35.604 20.0182 35.4456C19.907 35.2872 19.8515 35.1038 19.8487 34.8982V34.8732L19.8459 34.876ZM16.7559 34.7732C16.7559 35.0177 16.7003 35.2261 16.592 35.4012C16.4808 35.5762 16.3252 35.7096 16.1224 35.8041C15.9195 35.8986 15.6778 35.9458 15.3971 35.9486C15.1165 35.9486 14.8747 35.8986 14.6746 35.8069C14.4718 35.7124 14.319 35.579 14.2106 35.4039C14.1022 35.2289 14.0466 35.0177 14.0466 34.7732C14.0466 34.5258 14.1022 34.3174 14.2106 34.1424C14.319 33.9673 14.4746 33.8339 14.6746 33.7395C14.8747 33.645 15.1165 33.6005 15.3971 33.5977C15.6778 33.5977 15.9195 33.6478 16.1224 33.7395C16.3252 33.8339 16.4808 33.9673 16.592 34.1424C16.7003 34.3174 16.7559 34.5286 16.7559 34.7704V34.7732ZM17.4339 31.975H16.7559V33.6228C16.567 33.431 16.3558 33.2893 16.1224 33.1976C15.889 33.1059 15.625 33.0587 15.3276 33.0614C15.0303 33.0614 14.7636 33.1031 14.519 33.1865C14.2745 33.2671 14.0661 33.3838 13.891 33.5338C13.7132 33.6867 13.577 33.8645 13.4825 34.0757C13.3881 34.2841 13.338 34.5175 13.338 34.7732C13.338 35.0288 13.3881 35.2622 13.4825 35.4734C13.577 35.6846 13.716 35.8652 13.891 36.018C14.0661 36.1709 14.2745 36.2876 14.5162 36.3682C14.7608 36.4515 15.0275 36.4932 15.3221 36.4932C15.6222 36.4932 15.8917 36.4432 16.1279 36.3487C16.3641 36.2515 16.5753 36.1097 16.7587 35.9152V36.3932H17.4367V31.9722L17.4339 31.975ZM8.47522 34.7593C8.47522 34.512 8.53357 34.298 8.64472 34.1202C8.75587 33.9395 8.91426 33.8034 9.12267 33.7061C9.3283 33.6116 9.57283 33.5616 9.85626 33.5616C10.1397 33.5616 10.3842 33.6116 10.5899 33.7061C10.7955 33.8034 10.9539 33.9395 11.065 34.1202C11.1762 34.298 11.2317 34.512 11.2317 34.7593C11.2317 35.0093 11.1762 35.2205 11.065 35.3984C10.9539 35.5762 10.7983 35.7124 10.5899 35.8096C10.3842 35.9041 10.1425 35.9541 9.85626 35.9541C9.57283 35.9541 9.3283 35.9041 9.12267 35.8096C8.91704 35.7124 8.75865 35.5762 8.64472 35.3984C8.53357 35.2205 8.47522 35.0066 8.47522 34.7593ZM7.77497 34.7593C7.77497 35.0232 7.82499 35.2622 7.91947 35.4762C8.01394 35.6901 8.15288 35.8763 8.33628 36.0292C8.51968 36.182 8.73642 36.3015 8.99207 36.3848C9.24771 36.4682 9.53393 36.5099 9.85626 36.5099C10.1786 36.5099 10.4648 36.4682 10.7205 36.3848C10.9761 36.3015 11.1928 36.1848 11.3735 36.0292C11.5541 35.8763 11.6902 35.6901 11.7875 35.4762C11.882 35.2622 11.932 35.0232 11.932 34.7593C11.932 34.4953 11.882 34.2563 11.7875 34.0396C11.6902 33.8256 11.5541 33.6422 11.3735 33.4894C11.1928 33.3365 10.9761 33.2171 10.7205 33.1337C10.4648 33.0503 10.1786 33.0087 9.85626 33.0087C9.53671 33.0087 9.24771 33.0531 8.99207 33.1337C8.73642 33.2171 8.5169 33.3338 8.33628 33.4894C8.15566 33.645 8.01672 33.8284 7.91947 34.0396C7.82221 34.2563 7.77497 34.4953 7.77497 34.7593ZM0 36.3932H0.69469L0.653009 32.4334L2.64538 36.3932H3.36508L5.39079 32.4334L5.34911 36.3932H6.0438V31.9722H4.98787L3.00384 35.8235L1.06704 31.9722H0V36.3932Z" fill="#151616"></path>
  <path fill-rule="evenodd" clip-rule="evenodd" d="M146.527 9.96746H147.222C147.552 9.96746 147.777 9.91744 147.897 9.8174C148.016 9.71737 148.08 9.58955 148.08 9.4256C148.08 9.32001 148.05 9.22831 147.991 9.14495C147.933 9.06436 147.852 9.00045 147.75 8.96155C147.644 8.91987 147.455 8.90042 147.174 8.90042H146.524V9.96746H146.527ZM145.954 11.957V8.41969H147.172C147.588 8.41969 147.888 8.45026 148.075 8.51695C148.261 8.58086 148.408 8.69479 148.519 8.85874C148.63 9.02268 148.683 9.19496 148.683 9.37836C148.683 9.63679 148.592 9.86186 148.405 10.0536C148.222 10.2453 147.975 10.3537 147.672 10.3759C147.797 10.4287 147.9 10.4899 147.972 10.5649C148.116 10.7038 148.289 10.9372 148.497 11.2679L148.928 11.9598H148.23L147.916 11.4013C147.669 10.965 147.472 10.6899 147.322 10.5788C147.216 10.4982 147.063 10.4565 146.863 10.4565H146.527V11.9598H145.957L145.954 11.957ZM147.399 7.39711C146.938 7.39711 146.488 7.5166 146.052 7.75279C145.613 7.98899 145.271 8.32799 145.024 8.76704C144.776 9.20608 144.654 9.66457 144.654 10.1425C144.654 10.6205 144.776 11.0706 145.018 11.5041C145.26 11.9376 145.599 12.2766 146.035 12.5211C146.471 12.7629 146.924 12.8851 147.399 12.8851C147.875 12.8851 148.328 12.7629 148.764 12.5211C149.2 12.2766 149.536 11.9404 149.778 11.5041C150.02 11.0706 150.139 10.6149 150.139 10.1425C150.139 9.67013 150.017 9.20608 149.772 8.76704C149.528 8.32799 149.186 7.98899 148.744 7.75279C148.305 7.5166 147.858 7.39711 147.399 7.39711ZM147.399 6.85248C147.952 6.85248 148.491 6.99419 149.017 7.27763C149.542 7.56106 149.953 7.96676 150.245 8.49472C150.539 9.0199 150.684 9.57287 150.684 10.1453C150.684 10.7177 150.539 11.2568 150.25 11.7792C149.961 12.3016 149.556 12.7073 149.036 12.9963C148.514 13.2853 147.969 13.4298 147.399 13.4298C146.83 13.4298 146.285 13.2853 145.763 12.9963C145.24 12.7073 144.835 12.3016 144.546 11.7792C144.254 11.2568 144.109 10.7122 144.109 10.1453C144.109 9.57843 144.257 9.02268 144.551 8.49472C144.846 7.96676 145.257 7.56106 145.782 7.27763C146.307 6.99419 146.846 6.85248 147.399 6.85248Z" fill="#151616"></path>
</svg>
