<?xml version="1.0" encoding="UTF-8"?>
<svg xmlns="http://www.w3.org/2000/svg" width="36" height="36" viewBox="0 0 36 36" fill="none">
  <path d="M18.3725 32.8228C22.5391 32.8228 26.06 31.3565 28.935 28.424C31.81 25.4911 33.2731 21.9461 33.3243 17.789V2.82275H18.3581C14.201 2.874 10.656 4.33713 7.72309 7.21213C4.79059 10.0871 3.32434 13.608 3.32434 17.7746C3.32434 21.9413 4.78726 25.4911 7.71309 28.424C10.6393 31.3565 14.1925 32.8228 18.3725 32.8228ZM15.8943 26.849L25.4893 18.2565C25.8023 17.9769 25.8914 17.648 25.7568 17.2696C25.6223 16.8917 25.337 16.6611 24.9012 16.5778L17.3918 15.8946L21.9493 9.659C22.0423 9.51484 22.0831 9.35713 22.0718 9.18588C22.0606 9.01421 22.0037 8.86109 21.9012 8.72651C21.7345 8.55025 21.5475 8.47088 21.34 8.48838C21.132 8.50588 20.9416 8.58401 20.7687 8.72276L11.2675 17.2803C10.9562 17.5586 10.8598 17.8948 10.9781 18.289C11.0968 18.6832 11.3741 18.9219 11.81 19.0053L19.3193 19.6884L14.7956 25.924C14.7027 26.0682 14.6641 26.2259 14.68 26.3971C14.6962 26.5688 14.7635 26.7219 14.8818 26.8565C15.0006 26.9911 15.1556 27.0584 15.3468 27.0584C15.5381 27.0584 15.7206 26.9886 15.8943 26.849ZM18.3725 35.3228C16.1666 35.3228 14.0887 34.9421 12.1387 34.1809C10.1887 33.4196 8.43976 32.3723 6.89184 31.039L2.97309 34.9571C2.84851 35.0792 2.70851 35.1707 2.55309 35.2315C2.39726 35.2923 2.23622 35.3228 2.06997 35.3228C1.71705 35.3228 1.42122 35.2021 1.18247 34.9609C0.943716 34.72 0.824341 34.4213 0.824341 34.0646C0.824341 33.8971 0.854758 33.7371 0.915591 33.5846C0.976425 33.4325 1.06788 33.2957 1.18997 33.174L5.10809 29.2553C3.77476 27.7073 2.72747 25.9584 1.96622 24.0084C1.20497 22.0584 0.824341 19.9805 0.824341 17.7746C0.824341 12.9025 2.52955 8.77588 5.93997 5.39463C9.34997 2.01338 13.4918 0.322754 18.3656 0.322754H35.8243V17.7815C35.8243 22.6553 34.1337 26.7971 30.7525 30.2071C27.3712 33.6175 23.2445 35.3228 18.3725 35.3228Z" fill="#E3000F"></path>
</svg>
