<?xml version="1.0" encoding="UTF-8"?>
<svg xmlns="http://www.w3.org/2000/svg" width="40" height="40" viewBox="0 0 40 40" fill="none">
  <circle cx="19.9587" cy="19.8834" r="18.3991" stroke="#E3000F" stroke-width="2.5"></circle>
  <path d="M17.5219 22.7652C17.1647 22.7652 16.8536 22.6328 16.5886 22.3678C16.3237 22.1029 16.1912 21.7918 16.1912 21.4346V14.7818C16.1912 14.4246 16.3237 14.1135 16.5886 13.8486C16.8536 13.5836 17.1647 13.4512 17.5219 13.4512H22.4449C22.8021 13.4512 23.1131 13.5836 23.3781 13.8486C23.643 14.1135 23.7755 14.4246 23.7755 14.7818V21.4346C23.7755 21.7918 23.643 22.1029 23.3781 22.3678C23.1131 22.6328 22.8021 22.7652 22.4449 22.7652H17.5219ZM17.7212 21.2352H22.2455V14.9812H17.7212V21.2352ZM8.18099 22.7652C7.82378 22.7652 7.51271 22.6328 7.24776 22.3678C6.98282 22.1029 6.85034 21.7918 6.85034 21.4346V14.7818C6.85034 14.4246 6.98282 14.1135 7.24776 13.8486C7.51271 13.5836 7.82378 13.4512 8.18099 13.4512H13.104C13.4612 13.4512 13.7723 13.5836 14.0372 13.8486C14.3021 14.1135 14.4346 14.4246 14.4346 14.7818V15.8461H12.9046V14.9812H8.38034V21.2352H12.9046V20.3703H14.4346V21.4346C14.4346 21.7918 14.3021 22.1029 14.0372 22.3678C13.7723 22.6328 13.4612 22.7652 13.104 22.7652H8.18099ZM25.5321 27.9546V23.9627C25.5321 23.6058 25.6646 23.2949 25.9295 23.0299C26.1945 22.765 26.5056 22.6325 26.8628 22.6325H30.7215V20.1706H25.5321V18.6406H30.9209C31.2781 18.6406 31.5891 18.773 31.8541 19.038C32.119 19.3029 32.2515 19.614 32.2515 19.9712V22.6325C32.2515 22.9894 32.119 23.3003 31.8541 23.5653C31.5891 23.8302 31.2781 23.9627 30.9209 23.9627H27.0621V26.4246H32.2515V27.9546H25.5321Z" fill="#E3000F"></path>
</svg>
