<?xml version="1.0" encoding="UTF-8"?>
<svg xmlns="http://www.w3.org/2000/svg" width="36" height="40" viewBox="0 0 36 40" fill="none">
  <path d="M7.09881 39.7395C5.94798 39.7395 4.98714 39.3541 4.21631 38.5833C3.44548 37.8125 3.06006 36.8516 3.06006 35.7008V4.73953H0.560059V2.23953H10.5601V0.316406H25.5601V2.23953H35.5601V4.73953H33.0601V35.7008C33.0601 36.8516 32.6746 37.8125 31.9038 38.5833C31.133 39.3541 30.1721 39.7395 29.0213 39.7395H7.09881ZM30.5601 4.73953H5.56006V35.7008C5.56006 36.0858 5.72027 36.4385 6.04068 36.7589C6.3611 37.0793 6.71381 37.2395 7.09881 37.2395H29.0213C29.4063 37.2395 29.759 37.0793 30.0794 36.7589C30.3999 36.4385 30.5601 36.0858 30.5601 35.7008V4.73953Z" fill="#E3000F"></path>
  <path d="M16.8607 11.47L19.0802 11.47L19.0802 23.1913L23.7412 17.97L25.312 19.7394L17.9704 28.0088L10.6288 19.7394L12.1997 17.97L16.8607 23.1913L16.8607 11.47Z" fill="#E3000F"></path>
</svg>
