<?xml version="1.0" encoding="UTF-8"?>
<svg xmlns="http://www.w3.org/2000/svg" width="42" height="41" viewBox="0 0 42 41" fill="none">
  <path d="M30.1152 0.374512C30.5369 0.302938 30.9482 0.375607 31.3496 0.592285H31.3506L40.8125 4.99658V4.99561C41.1176 5.14825 41.3469 5.36729 41.501 5.65186C41.6544 5.9348 41.6598 6.22286 41.5176 6.51709C41.3652 6.82233 41.1473 7.01463 40.8643 7.09521C40.5809 7.17595 40.291 7.14543 39.9951 7.00244L30.5146 2.58936L30.5234 2.5708L30.501 2.59131L24.5293 8.09033L24.5254 8.08643V11.6001H24.5195L24.5293 11.6099L30.501 16.9849L30.4883 16.9995L30.5146 16.9868L39.9951 12.5728C40.2908 12.4298 40.5828 12.4022 40.8711 12.4878C41.1591 12.5729 41.3748 12.7626 41.5176 13.0581C41.6694 13.3619 41.6663 13.6521 41.5088 13.9302C41.3695 14.175 41.1741 14.3715 40.9229 14.519L40.8115 14.5796L31.3506 19.0112L31.3496 19.0122C30.9483 19.2292 30.5367 19.2933 30.1152 19.2056C29.6927 19.1177 29.311 18.9192 28.9697 18.6099L24.4316 14.5132L24.4102 14.4946V15.1958C24.3526 15.4417 24.2208 15.6517 24.0137 15.8257C23.8064 16.0004 23.5644 16.0884 23.2881 16.0884C22.9359 16.0884 22.6419 15.9695 22.4053 15.7329C22.169 15.4966 22.0508 15.2024 22.0508 14.8501V11.0884H12.874L12.8721 11.0981C12.7473 11.6542 12.5403 12.2057 12.251 12.7524C11.9614 13.2999 11.6441 13.7562 11.2988 14.1206L11.292 14.1274L11.2969 14.1353L23.4121 36.6831L23.3994 36.6899H32.9873V40.7026H3.0127V36.6899H10.5742L10.5693 36.6733L4.09863 15.5103L4.08594 15.5132L4.10352 15.5083L4.0918 15.5024L3.69336 15.2935C2.78738 14.782 2.05091 14.0971 1.48438 13.2378C0.836671 12.2563 0.512695 11.1266 0.512695 9.8501C0.512778 8.12271 1.12046 6.65151 2.33594 5.43604C3.55146 4.22059 5.02255 3.61279 6.75 3.61279C8.27592 3.61279 9.58461 4.08074 10.6768 5.01611C11.7693 5.95186 12.501 7.14805 12.8721 8.604L12.875 8.61279H22.0508V4.8501C22.0509 4.49754 22.1691 4.20348 22.4053 3.96729C22.6419 3.73112 22.9359 3.6128 23.2881 3.61279C23.5645 3.61279 23.8064 3.69507 24.0137 3.85986C24.1955 4.00414 24.3192 4.18759 24.3857 4.40967L24.4102 4.50439V5.20557L24.4316 5.18604L28.9697 0.993652C29.311 0.65233 29.6931 0.446108 30.1152 0.374512ZM9.22363 15.6089C8.96904 15.7682 8.60862 15.9042 8.1416 16.0161C7.67502 16.1279 7.25016 16.1518 6.86719 16.0884L6.84668 16.0845L6.85352 16.104L13.1709 36.6812L13.1729 36.6899H20.5781L20.5684 36.6714L9.24121 15.6128L9.23535 15.6011L9.22363 15.6089ZM6.75 6.08838C5.71798 6.08838 4.83284 6.45721 4.09473 7.19482C3.35708 7.93247 2.98739 8.81773 2.9873 9.8501C2.9873 10.8822 3.35699 11.7676 4.09473 12.5054C4.83285 13.2434 5.71796 13.6128 6.75 13.6128C7.78211 13.6128 8.66754 13.2435 9.40527 12.5054C10.1433 11.7677 10.5127 10.8821 10.5127 9.8501C10.5126 8.81779 10.1432 7.93245 9.40527 7.19482C8.66754 6.45709 7.78211 6.08838 6.75 6.08838Z" fill="#E3000F" stroke="#E5E5E5" stroke-width="0.025"></path>
</svg>
